{
    "accessors": {
        "accessor_102": {
            "bufferView": "bufferView_110",
            "byteOffset": 81834,
            "byteStride": 0,
            "componentType": 5123,
            "count": 19065,
            "type": "SCALAR"
        },
        "accessor_104": {
            "bufferView": "bufferView_111",
            "byteOffset": 508672,
            "byteStride": 12,
            "componentType": 5126,
            "count": 7611,
            "max": [
                0.149948,
                0.164499,
                1
            ],
            "min": [
                -0.150642,
                -0.166658,
                -1
            ],
            "type": "VEC3"
        },
        "accessor_106": {
            "bufferView": "bufferView_111",
            "byteOffset": 600004,
            "byteStride": 12,
            "componentType": 5126,
            "count": 7611,
            "max": [
                0.999996,
                0.999997,
                0.999998
            ],
            "min": [
                -0.999996,
                -0.999984,
                -0.999997
            ],
            "type": "VEC3"
        },
        "accessor_108": {
            "bufferView": "bufferView_111",
            "byteOffset": 691336,
            "byteStride": 8,
            "componentType": 5126,
            "count": 7611,
            "max": [
                0.99181,
                0.993769
            ],
            "min": [
                0.00814539,
                0.00784403
            ],
            "type": "VEC2"
        },
        "accessor_21": {
            "bufferView": "bufferView_110",
            "byteOffset": 0,
            "byteStride": 0,
            "componentType": 5123,
            "count": 18540,
            "type": "SCALAR"
        },
        "accessor_23": {
            "bufferView": "bufferView_111",
            "byteOffset": 0,
            "byteStride": 12,
            "componentType": 5126,
            "count": 7231,
            "max": [
                1.73122,
                0.849113,
                3.73819
            ],
            "min": [
                -1.7451,
                -0.845341,
                -3.73819
            ],
            "type": "VEC3"
        },
        "accessor_25": {
            "bufferView": "bufferView_111",
            "byteOffset": 86772,
            "byteStride": 12,
            "componentType": 5126,
            "count": 7231,
            "max": [
                0.999998,
                0.999997,
                0.999961
            ],
            "min": [
                -0.999999,
                -0.999997,
                -0.999999
            ],
            "type": "VEC3"
        },
        "accessor_27": {
            "bufferView": "bufferView_111",
            "byteOffset": 173544,
            "byteStride": 8,
            "componentType": 5126,
            "count": 7231,
            "max": [
                0.935327,
                1.00093
            ],
            "min": [
                0.000641882,
                -0.67831
            ],
            "type": "VEC2"
        },
        "accessor_48": {
            "bufferView": "bufferView_110",
            "byteOffset": 37080,
            "byteStride": 0,
            "componentType": 5123,
            "count": 4782,
            "type": "SCALAR"
        },
        "accessor_50": {
            "bufferView": "bufferView_111",
            "byteOffset": 231392,
            "byteStride": 12,
            "componentType": 5126,
            "count": 2080,
            "max": [
                1.10301,
                0.550827,
                3.08915
            ],
            "min": [
                -1.12982,
                -0.542166,
                -3.08915
            ],
            "type": "VEC3"
        },
        "accessor_52": {
            "bufferView": "bufferView_111",
            "byteOffset": 256352,
            "byteStride": 12,
            "componentType": 5126,
            "count": 2080,
            "max": [
                0.999999,
                0.999847,
                0.999849
            ],
            "min": [
                -0.999998,
                -0.999847,
                -0.999849
            ],
            "type": "VEC3"
        },
        "accessor_54": {
            "bufferView": "bufferView_111",
            "byteOffset": 281312,
            "byteStride": 8,
            "componentType": 5126,
            "count": 2080,
            "max": [
                0.997281,
                1.0003
            ],
            "min": [
                0.000275075,
                0.000925004
            ],
            "type": "VEC2"
        },
        "accessor_75": {
            "bufferView": "bufferView_110",
            "byteOffset": 46644,
            "byteStride": 0,
            "componentType": 5123,
            "count": 17595,
            "type": "SCALAR"
        },
        "accessor_77": {
            "bufferView": "bufferView_111",
            "byteOffset": 297952,
            "byteStride": 12,
            "componentType": 5126,
            "count": 6585,
            "max": [
                1.58633,
                1.51051,
                4.46639
            ],
            "min": [
                -1.57666,
                -1.4761,
                -4.46639
            ],
            "type": "VEC3"
        },
        "accessor_79": {
            "bufferView": "bufferView_111",
            "byteOffset": 376972,
            "byteStride": 12,
            "componentType": 5126,
            "count": 6585,
            "max": [
                0.999998,
                0.999984,
                0.999997
            ],
            "min": [
                -0.999998,
                -0.999994,
                -0.99992
            ],
            "type": "VEC3"
        },
        "accessor_81": {
            "bufferView": "bufferView_111",
            "byteOffset": 455992,
            "byteStride": 8,
            "componentType": 5126,
            "count": 6585,
            "max": [
                0.999925,
                0.999996
            ],
            "min": [
                0,
                0.000131011
            ],
            "type": "VEC2"
        }
    },
    "animations": {},
    "asset": {
        "generator": "collada2gltf@173625dc5ff1b7e8046666be1f3ca2835512ac08",
        "premultipliedAlpha": true,
        "profile": "WebGL 1.0.2",
        "version": 0.8
    },
    "bufferViews": {
        "bufferView_110": {
            "buffer": "Model",
            "byteLength": 119964,
            "byteOffset": 0,
            "target": 34963
        },
        "bufferView_111": {
            "buffer": "Model",
            "byteLength": 752224,
            "byteOffset": 119964,
            "target": 34962
        }
    },
    "buffers": {
        "Model": {
            "byteLength": 872188,
            "type": "arraybuffer",
            "uri": "data:application/octet-stream;base64,"
        }
    },
    "images": {
        "ID10": {
            "uri": "Turret.png"
        },
        "ID15": {
            "uri": "Main%20Body.png"
        },
        "ID20": {
            "uri": "Main%20Body%202.png"
        },
        "ID5": {
            "uri": "Gun.png"
        }
    },
    "materials": {
        "ID14": {
            "instanceTechnique": {
                "technique": "technique0",
                "values": {
                    "diffuse": "texture_ID15",
                    "shininess": 102.312,
                    "specular": [
                        0.05,
                        0.05,
                        0.05,
                        1
                    ]
                }
            },
            "name": "Main_Body"
        },
        "ID19": {
            "instanceTechnique": {
                "technique": "technique0",
                "values": {
                    "diffuse": "texture_ID20",
                    "shininess": 102.312,
                    "specular": [
                        0.05,
                        0.05,
                        0.05,
                        1
                    ]
                }
            },
            "name": "Main_Body_2"
        },
        "ID4": {
            "instanceTechnique": {
                "technique": "technique0",
                "values": {
                    "diffuse": "texture_ID5",
                    "shininess": 102.312,
                    "specular": [
                        0.05,
                        0.05,
                        0.05,
                        1
                    ]
                }
            },
            "name": "Gun"
        },
        "ID9": {
            "instanceTechnique": {
                "technique": "technique0",
                "values": {
                    "diffuse": "texture_ID10",
                    "shininess": 102.312,
                    "specular": [
                        0.05,
                        0.05,
                        0.05,
                        1
                    ]
                }
            },
            "name": "Turret"
        }
    },
    "meshes": {
        "ID25": {
            "name": "ID25",
            "primitives": [
                {
                    "attributes": {
                        "NORMAL": "accessor_25",
                        "POSITION": "accessor_23",
                        "TEXCOORD_0": "accessor_27"
                    },
                    "indices": "accessor_21",
                    "material": "ID19",
                    "primitive": 4
                }
            ]
        },
        "ID34": {
            "name": "ID34",
            "primitives": [
                {
                    "attributes": {
                        "NORMAL": "accessor_52",
                        "POSITION": "accessor_50",
                        "TEXCOORD_0": "accessor_54"
                    },
                    "indices": "accessor_48",
                    "material": "ID14",
                    "primitive": 4
                }
            ]
        },
        "ID43": {
            "name": "ID43",
            "primitives": [
                {
                    "attributes": {
                        "NORMAL": "accessor_79",
                        "POSITION": "accessor_77",
                        "TEXCOORD_0": "accessor_81"
                    },
                    "indices": "accessor_75",
                    "material": "ID9",
                    "primitive": 4
                }
            ]
        },
        "ID52": {
            "name": "ID52",
            "primitives": [
                {
                    "attributes": {
                        "NORMAL": "accessor_106",
                        "POSITION": "accessor_104",
                        "TEXCOORD_0": "accessor_108"
                    },
                    "indices": "accessor_102",
                    "material": "ID4",
                    "primitive": 4
                }
            ]
        }
    },
    "nodes": {
        "ID24": {
            "children": [],
            "matrix": [
                1,
                0,
                0,
                0,
                0,
                1,
                0,
                0,
                0,
                0,
                1,
                0,
                0.0207605,
                0.86499,
                0.375935,
                1
            ],
            "meshes": [
                "ID25"
            ],
            "name": "Main_Body_2"
        },
        "ID33": {
            "children": [],
            "matrix": [
                1,
                0,
                0,
                0,
                0,
                1,
                0,
                0,
                0,
                0,
                1,
                0,
                0.0284904,
                0.887053,
                0.42142,
                1
            ],
            "meshes": [
                "ID34"
            ],
            "name": "Main_Body"
        },
        "ID42": {
            "children": [],
            "matrix": [
                1,
                0,
                0,
                0,
                0,
                1,
                0,
                0,
                0,
                0,
                1,
                0,
                0.010704,
                1.82099,
                -1.47754,
                1
            ],
            "meshes": [
                "ID43"
            ],
            "name": "Turret"
        },
        "ID51": {
            "children": [],
            "matrix": [
                1,
                0,
                0,
                0,
                0,
                1,
                0,
                0,
                0,
                0,
                1,
                0,
                0.687634,
                2.67509,
                -0.782061,
                1
            ],
            "meshes": [
                "ID52"
            ],
            "name": "gun"
        }
    },
    "programs": {
        "program_0": {
            "attributes": [
                "a_normal",
                "a_position",
                "a_texcoord0"
            ],
            "fragmentShader": "Model0FS",
            "vertexShader": "Model0VS"
        }
    },
    "samplers": {
        "sampler_0": {
            "magFilter": 9729,
            "minFilter": 9729,
            "wrapS": 10497,
            "wrapT": 10497
        }
    },
    "scene": "defaultScene",
    "scenes": {
        "defaultScene": {
            "nodes": [
                "ID24",
                "ID33",
                "ID42",
                "ID51"
            ]
        }
    },
    "shaders": {
        "Model0FS": {
            "type": 35632,
            "uri": "data:text/plain;base64,"
        },
        "Model0VS": {
            "type": 35633,
            "uri": "data:text/plain;base64,"
        }
    },
    "skins": {},
    "techniques": {
        "technique0": {
            "parameters": {
                "diffuse": {
                    "type": 35678
                },
                "modelViewMatrix": {
                    "semantic": "MODELVIEW",
                    "type": 35676
                },
                "normal": {
                    "semantic": "NORMAL",
                    "type": 35665
                },
                "normalMatrix": {
                    "semantic": "MODELVIEWINVERSETRANSPOSE",
                    "type": 35675
                },
                "position": {
                    "semantic": "POSITION",
                    "type": 35665
                },
                "projectionMatrix": {
                    "semantic": "PROJECTION",
                    "type": 35676
                },
                "shininess": {
                    "type": 5126
                },
                "specular": {
                    "type": 35666
                },
                "texcoord0": {
                    "semantic": "TEXCOORD_0",
                    "type": 35664
                }
            },
            "pass": "defaultPass",
            "passes": {
                "defaultPass": {
                    "details": {
                        "commonProfile": {
                            "extras": {
                                "doubleSided": false
                            },
                            "lightingModel": "Blinn",
                            "parameters": [
                                "diffuse",
                                "modelViewMatrix",
                                "normalMatrix",
                                "projectionMatrix",
                                "shininess",
                                "specular"
                            ],
                            "texcoordBindings": {
                                "diffuse": "TEXCOORD_0"
                            }
                        },
                        "type": "COLLADA-1.4.1/commonProfile"
                    },
                    "instanceProgram": {
                        "attributes": {
                            "a_normal": "normal",
                            "a_position": "position",
                            "a_texcoord0": "texcoord0"
                        },
                        "program": "program_0",
                        "uniforms": {
                            "u_diffuse": "diffuse",
                            "u_modelViewMatrix": "modelViewMatrix",
                            "u_normalMatrix": "normalMatrix",
                            "u_projectionMatrix": "projectionMatrix",
                            "u_shininess": "shininess",
                            "u_specular": "specular"
                        }
                    },
                    "states": {
                        "enable": [
                            2884,
                            2929
                        ]
                    }
                }
            }
        }
    },
    "textures": {
        "texture_ID10": {
            "format": 6408,
            "internalFormat": 6408,
            "sampler": "sampler_0",
            "source": "ID10",
            "target": 3553,
            "type": 5121
        },
        "texture_ID15": {
            "format": 6408,
            "internalFormat": 6408,
            "sampler": "sampler_0",
            "source": "ID15",
            "target": 3553,
            "type": 5121
        },
        "texture_ID20": {
            "format": 6408,
            "internalFormat": 6408,
            "sampler": "sampler_0",
            "source": "ID20",
            "target": 3553,
            "type": 5121
        },
        "texture_ID5": {
            "format": 6408,
            "internalFormat": 6408,
            "sampler": "sampler_0",
            "source": "ID5",
            "target": 3553,
            "type": 5121
        }
    }
}